<!-- Generator: Adobe Illustrator 21.0.0, SVG Export Plug-In  -->
<svg version="1.1"
	 xmlns="http://www.w3.org/2000/svg" xmlns:xlink="http://www.w3.org/1999/xlink" xmlns:a="http://ns.adobe.com/AdobeSVGViewerExtensions/3.0/"
	 x="0px" y="0px" width="85.9px" height="96px" viewBox="0 0 85.9 96" style="overflow:scroll;enable-background:new 0 0 85.9 96;"
	 xml:space="preserve">
<style type="text/css">
	.st0{fill:#FFFFFF;}
</style>
<defs>
</defs>
<g>
	<g transform="translate(-30.000000, -585.000000)">
		<g transform="translate(20.000000, 375.000000)">
			<g transform="translate(0.000000, 201.000000)">
				<g transform="translate(10.000000, 9.000000)">
					<path class="st0" d="M56.2,78.2L45.4,66.7l30,1L72.9,96l-9.5-10.2c-10.2,5.5-22.2,6.7-33.3,3.2c-18.9-6-31.3-24-30-43.8
						l9.9,0.7C9,61.1,18.5,75,33.1,79.5C40.6,81.9,48.9,81.4,56.2,78.2L56.2,78.2z M55.8,7c19,6,31.3,24,30,43.8l-9.9-0.7
						c1-15.2-8.5-29-23.1-33.6c-7.7-2.4-15.9-1.9-23.2,1.3l10.8,11.5l-30-1L12.9,0l9.6,10.2C28.8,6.8,35.8,5,42.9,5
						C47.2,5,51.6,5.7,55.8,7L55.8,7z"/>
				</g>
			</g>
		</g>
	</g>
</g>
</svg>
